<svg width="28" height="28" viewBox="0 0 28 28" fill="none" xmlns="http://www.w3.org/2000/svg">
<mask id="mask0_3048_56" style="mask-type:alpha" maskUnits="userSpaceOnUse" x="0" y="0" width="28" height="28">
<rect width="28" height="28" fill="#C4C4C4"/>
</mask>
<g mask="url(#mask0_3048_56)">
<path d="M26.46 8.83521L14.6708 2.47337C14.3243 2.28671 13.9078 2.28671 13.5625 2.47337L1.77919 8.83521C1.21219 9.14321 1.00102 9.8502 1.30669 10.4172C1.51669 10.808 1.91919 11.0297 2.33336 11.0297C2.52002 11.0297 2.71136 10.9854 2.88752 10.8897L3.74386 10.4277L5.59886 23.5527C5.85086 24.969 7.12719 25.9584 8.70219 25.9584H19.5312C21.1062 25.9584 22.3825 24.969 22.6368 23.5224L24.4895 10.4265L25.3493 10.8909C25.9152 11.1977 26.6233 10.9865 26.929 10.4195C27.2358 9.85253 27.0223 9.14437 26.4577 8.8387L26.46 8.83521ZM14.1167 18.2677C12.0225 18.2677 10.325 16.5702 10.325 14.476C10.325 12.3819 12.0225 10.6844 14.1167 10.6844C16.2108 10.6844 17.9083 12.3819 17.9083 14.476C17.9083 16.5702 16.2108 18.2677 14.1167 18.2677Z" fill="black"/>
</g>
</svg>
