<svg width="28" height="28" viewBox="0 0 28 28" fill="none" xmlns="http://www.w3.org/2000/svg">
<mask id="mask0_3048_293" style="mask-type:alpha" maskUnits="userSpaceOnUse" x="0" y="0" width="28" height="28">
<rect width="28" height="28" fill="#C4C4C4"/>
</mask>
<g mask="url(#mask0_3048_293)">
<path d="M25.3141 19.2944C25.2908 19.2757 22.8174 17.3811 22.8606 12.2594C22.8839 9.30539 21.9133 6.68038 20.1224 4.86855C18.5183 3.24338 16.3459 2.34504 14.0068 2.33337H13.9916C11.6536 2.34504 9.48127 3.24339 7.87593 4.86972C6.08627 6.68155 5.11328 9.30539 5.13894 12.2594C5.18211 17.3111 2.78227 19.2209 2.6866 19.2944C2.38327 19.5196 2.2596 19.9127 2.37744 20.272C2.49644 20.6314 2.83243 20.8729 3.20809 20.8729H8.94811C9.06711 23.5679 11.2779 25.7262 13.9998 25.7262C16.7216 25.7262 18.9301 23.5679 19.0479 20.8729H24.7903C25.1659 20.8729 25.5019 20.6326 25.6186 20.2732C25.7388 19.9151 25.6151 19.5207 25.3118 19.2955L25.3141 19.2944ZM14.0009 23.9727C12.2451 23.9727 10.8159 22.5996 10.7016 20.8717H17.3003C17.1836 22.5984 15.7568 23.975 14.0009 23.975V23.9727ZM5.11094 19.1217C5.97427 17.8011 6.91694 15.589 6.88894 12.243C6.86794 9.72304 7.64027 7.59738 9.12077 6.09821C10.3959 4.80671 12.1308 4.09154 14.0009 4.08337C15.8711 4.09271 17.6024 4.80672 18.8776 6.09939C20.3593 7.59855 21.1328 9.72305 21.1118 12.2442C21.0838 15.5902 22.0276 17.8034 22.8909 19.1229H5.11094V19.1217Z" fill="black"/>
</g>
</svg>
