<svg width="28" height="28" viewBox="0 0 28 28" fill="none" xmlns="http://www.w3.org/2000/svg">
<mask id="mask0_3048_234" style="mask-type:alpha" maskUnits="userSpaceOnUse" x="0" y="0" width="28" height="28">
<rect width="28" height="28" fill="#C4C4C4"/>
</mask>
<g mask="url(#mask0_3048_234)">
<path d="M13.2428 14.1867C14.8236 14.1867 16.5935 14.0117 17.7228 12.7214C18.6725 11.6364 18.9805 9.95871 18.6631 7.59737C18.2198 4.30154 16.1933 2.33337 13.2428 2.33337C10.2923 2.33337 8.2658 4.30154 7.82247 7.59971C7.50514 9.95871 7.81315 11.6364 8.76281 12.7214C9.89215 14.0129 11.662 14.1867 13.2428 14.1867ZM9.55614 7.8307C9.74514 6.4307 10.4743 4.08337 13.2428 4.08337C16.0113 4.08337 16.7405 6.43187 16.9295 7.8307C17.171 9.63904 16.996 10.8955 16.4045 11.5699C15.8736 12.1765 14.9275 12.4367 13.2428 12.4367C11.5581 12.4367 10.612 12.1765 10.0811 11.5699C9.48964 10.8955 9.31464 9.63787 9.55614 7.8307ZM22.9028 22.8434C21.8796 18.7297 17.9071 15.855 13.2428 15.855C8.57848 15.855 4.60598 18.7297 3.58281 22.8434C3.38214 23.6507 3.55014 24.4767 4.04364 25.1067C4.51964 25.7134 5.25697 26.0634 6.06547 26.0634H20.4201C21.2286 26.0634 21.966 25.7134 22.442 25.1067C22.9366 24.4767 23.1035 23.6519 22.9016 22.8434H22.9028ZM21.0641 24.0287C20.9171 24.2154 20.6955 24.3157 20.4201 24.3157H6.06547C5.79131 24.3157 5.56847 24.2165 5.42147 24.0287C5.26164 23.8257 5.21148 23.548 5.28148 23.2657C6.10981 19.9349 9.38464 17.6074 13.2428 17.6074C17.101 17.6074 20.3758 19.9337 21.2041 23.2657C21.2741 23.548 21.224 23.8257 21.0641 24.0287Z" fill="black"/>
</g>
</svg>
